<svg xmlns="http://www.w3.org/2000/svg" width="512" height="512" viewBox="55 70 400 380" xml:space="preserve"><path fill="transparent" d="M0 0h512v512H0z"/><g fill="#3CB371"><path d="M401.9 171.809a5.26 5.26 0 0 0 5.26-5.26V82.023c0-4.494-5.539-6.919-8.84-3.855l-77.047 71.544H190.727L113.68 78.17c-3.3-3.064-8.84-.639-8.84 3.855v140.289c0 40.376 15.723 78.336 44.273 106.887 24.757 24.756 56.588 39.86 90.935 43.439-10.34 5.663-17.367 16.647-17.367 29.243 0 18.372 14.947 33.319 33.318 33.319s33.319-14.947 33.319-33.319c0-12.596-7.028-23.58-17.367-29.243 34.347-3.58 66.179-18.683 90.935-43.44 28.55-28.55 44.273-66.51 44.273-106.886V191.8a5.26 5.26 0 1 0-10.52 0v30.512c0 77.55-63.09 140.64-140.64 140.64s-140.64-63.09-140.64-140.64V94.09l68.04 63.18v53.82a5.31 5.31 0 0 0 3.484 4.952c2.335.837 5.012-.117 6.288-2.245l28.376-47.292 29.616 69.104c1.784 4.162 7.886 4.163 9.67 0l29.617-69.104 28.375 47.292c1.277 2.127 3.954 3.082 6.289 2.245 2.066-.74 3.483-2.756 3.483-4.952v-53.82l68.04-63.18v72.46a5.264 5.264 0 0 0 5.263 5.26M250.74 379.704v16.566c0 .119.01.235.017.35h-.368a5.26 5.26 0 0 0-5.26 5.261 5.26 5.26 0 0 0 5.26 5.26h11.223a5.26 5.26 0 0 0 5.26-5.26 5.26 5.26 0 0 0-5.26-5.26h-.368c.007-.116.017-.232.017-.35v-16.567c10.041 2.382 17.536 11.418 17.536 22.177 0 12.57-10.226 22.797-22.797 22.797s-22.797-10.227-22.797-22.797c0-10.759 7.495-19.795 17.537-22.177m-56.817-187.608v-31.86h19.117zM256 220.18l-25.69-59.945h51.381zm62.077-28.084-19.117-31.86h19.117z" data-original="#000000"/><path d="M278.446 329.282c-8.781 0-16.04-6.621-17.058-15.132l20.779-20.78c3.246-3.246.866-8.98-3.72-8.98h-44.893c-4.585 0-6.966 5.735-3.72 8.98l20.778 20.78c-1.018 8.511-8.277 15.132-17.058 15.132a5.26 5.26 0 1 0 0 10.521c9.226 0 17.407-4.536 22.446-11.492 5.039 6.955 13.22 11.492 22.446 11.492a5.26 5.26 0 1 0 0-10.52M256 304.657l-9.746-9.746h19.491zm67.339-53.937c-12.184 0-22.096 9.912-22.096 22.095a5.26 5.26 0 1 0 10.521 0c0-6.382 5.192-11.574 11.574-11.574s11.574 5.192 11.574 11.574a5.26 5.26 0 1 0 10.52 0c.002-12.183-9.91-22.095-22.093-22.095m-134.678 0c-12.183 0-22.095 9.912-22.095 22.095a5.26 5.26 0 1 0 10.52 0c0-6.382 5.193-11.574 11.575-11.574s11.574 5.192 11.574 11.574a5.26 5.26 0 0 0 5.26 5.26 5.26 5.26 0 0 0 5.26-5.26c.002-12.183-9.91-22.095-22.094-22.095m187.072-121.912-22.446 22.446c-2.027 2.026-2.027 5.413 0 7.44s5.413 2.026 7.44 0l13.465-13.466v9.746a5.261 5.261 0 0 0 10.522 0v-22.447c0-4.586-5.734-6.966-8.981-3.72m-217.021 22.447-22.446-22.446a5.26 5.26 0 0 0-8.98 3.72v22.446a5.26 5.26 0 1 0 10.52 0v-9.746l13.466 13.465c2.027 2.027 5.413 2.027 7.44 0s2.026-5.413 0-7.44" data-original="#000000"/></g></svg>