<svg xmlns="http://www.w3.org/2000/svg" width="512" height="512" viewBox="55 70 400 380" xml:space="preserve"><path fill="transparent" d="M0 0h512v512H0z"/><g transform="matrix(.7 0 0 .7 76.8 76.8)" fill="#3CB371"><path d="M292.572 145.785a7.517 7.517 0 0 0-10.521 1.503c-.153.204-3.828 5.01-10.02 5.01-.255 0-6.304-.057-10.02-5.01a7.516 7.516 0 0 0-12.024 9.018c7.867 10.49 19.743 11.021 22.043 11.021 13.113 0 20.662-9.181 22.043-11.021a7.515 7.515 0 0 0-1.501-10.521" data-original="#000000"/><circle cx="304.595" cy="120.235" r="7.515" data-original="#000000"/><circle cx="239.468" cy="120.235" r="7.515" data-original="#000000"/><circle cx="272.032" cy="319.624" r="7.515" data-original="#000000"/><circle cx="272.032" cy="376.235" r="7.515" data-original="#000000"/><circle cx="272.032" cy="432.845" r="7.515" data-original="#000000"/><path d="m469.721 289.388-11.333-11.333-.002-.002-.003-.002-11.333-11.333a7.515 7.515 0 0 0-10.627 10.628l6.022 6.022-12.045 12.044-11.69-11.69a7.513 7.513 0 0 0-10.626 0l-.287.285v-19.991c0-22.249-13.14-41.479-32.063-50.361V87.671C375.734 39.329 336.404 0 288.063 0H256c-48.342 0-87.671 39.329-87.671 87.671v125.983c-18.923 8.882-32.063 28.112-32.063 50.361v8.281h-56.61a7.515 7.515 0 0 0-7.515 7.515v56.611h-8.517c-12.983 0-23.546 10.563-23.546 23.546v40.078c0 12.983 10.563 23.546 23.546 23.546h8.517v32.799a7.515 7.515 0 0 0 7.515 7.515h56.611v40.579a7.515 7.515 0 0 0 7.515 7.515h172.337a7.515 7.515 0 1 0 0-15.03H151.296v-33.065h80.658a7.515 7.515 0 0 0 7.515-7.515V312.11a7.515 7.515 0 0 0-7.515-7.515h-24.548v-24.783a7.515 7.515 0 0 0-7.515-7.515h-48.595v-8.281c0-22.376 18.204-40.579 40.579-40.579h40.579v.501c0 21.823 17.755 39.577 39.577 39.577s39.577-17.755 39.577-39.577v-.501h40.579c22.376 0 40.579 18.204 40.579 40.579v34.735c0 .092.01.181.014.272l-52.714 52.713a7.51 7.51 0 0 0-2.055 6.787l4.88 24.396-19.828 19.829a7.515 7.515 0 0 0 10.626 10.628l19.828-19.829 15.844 3.169a23.5 23.5 0 0 0-.406 4.331v40.078c0 12.983 10.563 23.546 23.546 23.546h.265v32.3h-40.579a7.515 7.515 0 1 0 0 15.03h48.094a7.515 7.515 0 0 0 7.515-7.515v-39.813h16.768c12.983 0 23.546-10.563 23.546-23.546v-40.078c0-12.983-10.563-23.546-23.546-23.546h-20.993l3.798-3.798.003-.003.003-.003 45.341-45.34a7.515 7.515 0 0 0 0-10.628l-11.69-11.69 12.044-12.044 6.022 6.022a7.5 7.5 0 0 0 5.313 2.2 7.518 7.518 0 0 0 5.316-12.831m-262.316 30.236h17.033v129.252h-17.033zM63.624 408.563c-4.696 0-8.517-3.82-8.517-8.517v-40.078c0-4.696 3.82-8.517 8.517-8.517h32.063c4.696 0 8.517 3.82 8.517 8.517v.501H87.671a7.515 7.515 0 1 0 0 15.03h16.532v9.018H87.671a7.515 7.515 0 1 0 0 15.03h16.532v.501c0 4.696-3.82 8.517-8.517 8.517H63.624zm128.752-121.237v161.55H87.17v-25.284h8.517c12.983 0 23.546-10.563 23.546-23.546v-40.078c0-12.983-10.563-23.546-23.546-23.546H87.17v-49.096zm40.078-78.919h-40.579c-2.896 0-5.739.223-8.517.652v-61.396c9.225 22.673 26.899 41.041 49.096 51.166zm64.125 15.53c0 13.536-11.013 24.548-24.548 24.548s-24.548-11.011-24.548-24.548v-19.73c7.837 2.082 16.064 3.197 24.548 3.197s16.711-1.115 24.548-3.197zm-24.547-31.561c-44.475 0-80.658-36.183-80.658-80.658 0-2.846.164-5.693.46-8.517h8.057a7.52 7.52 0 0 0 5.313-2.2l10.718-10.719L226.64 101a7.5 7.5 0 0 0 5.313 2.2H256a7.51 7.51 0 0 0 6.721-4.154l9.309-18.619 9.31 18.62a7.51 7.51 0 0 0 6.721 4.154h24.047a7.52 7.52 0 0 0 5.313-2.2l10.719-10.719L338.859 101a7.5 7.5 0 0 0 5.313 2.2h8.056c.296 2.824.461 5.671.461 8.517 0 44.476-36.183 80.659-80.657 80.659m88.673 16.683a56 56 0 0 0-8.517-.652h-40.579v-9.578c22.197-10.125 39.871-28.493 49.096-51.166zm0-120.887h-13.42l-13.83-13.831a7.515 7.515 0 0 0-10.627 0l-13.831 13.831h-16.29l-13.955-27.909a7.513 7.513 0 0 0-13.442 0l-13.953 27.909h-16.291l-13.83-13.831a7.515 7.515 0 0 0-10.627 0l-13.831 13.831h-13.419v-.501c0-40.055 32.587-72.642 72.642-72.642h32.063c40.055 0 72.642 32.587 72.642 72.642zm63.859 304.36c4.696 0 8.517 3.82 8.517 8.517v40.078c0 4.696-3.82 8.517-8.517 8.517h-32.063c-4.696 0-8.517-3.82-8.517-8.517v-.501h16.532a7.515 7.515 0 1 0 0-15.03h-16.532v-9.018h16.532a7.515 7.515 0 1 0 0-15.03h-16.532v-.501c0-4.696 3.82-8.517 8.517-8.517h32.063zm.168-57.445-6.023-6.023a7.515 7.515 0 0 0-10.627 10.628l6.022 6.022-12.044 12.045-6.022-6.022a7.515 7.515 0 1 0-10.628 10.626l6.023 6.023-14.515 14.514-19.483-3.898-3.897-19.483 59.858-59.857 11.688 11.689.002.002.003.002 11.687 11.688z" data-original="#000000"/></g></svg>