<svg xmlns="http://www.w3.org/2000/svg" width="512" height="512" viewBox="70 200 375 100" xml:space="preserve"><path fill="transparent" d="M0 0h512v512H0z"/><g fill="#3CB371"><path d="M323.332 228.296c-12.183 0-22.094 9.911-22.094 22.093a5.261 5.261 0 0 0 10.521 0c0-6.38 5.192-11.572 11.573-11.572s11.572 5.192 11.572 11.572a5.261 5.261 0 0 0 10.521 0c0-12.182-9.911-22.093-22.093-22.093m-134.664 0c-12.182 0-22.093 9.911-22.093 22.093a5.261 5.261 0 0 0 10.521 0c0-6.38 5.192-11.572 11.572-11.572s11.573 5.192 11.573 11.572a5.261 5.261 0 0 0 10.52 0c0-12.182-9.91-22.093-22.093-22.093" data-original="#000000"/><path d="M429.94 99.244h-84.165c-1.58 0-3.118.746-4.107 1.974l-20.864 26.08H301.12a5.261 5.261 0 0 0 0 10.522h22.21a5.26 5.26 0 0 0 4.108-1.974l18.897-23.622 50.288 46.936v40.732c0 75.778-60.252 137.739-135.364 140.515v-45.885c12.769-1.965 22.444-10.94 22.444-21.688 0-12.183-12.429-22.094-27.704-22.094-7.138 0-13.653 2.165-18.57 5.714a50 50 0 0 0 1.386-11.676c0-27.651-22.496-50.148-50.148-50.148s-50.148 22.497-50.148 50.148 22.497 50.148 50.148 50.148c16.2 0 30.621-7.728 39.796-19.683 1.32 9.658 10.475 17.462 22.276 19.279v45.885c-75.113-2.777-135.365-64.738-135.365-140.516v-39.043a5.3 5.3 0 0 0-.217-1.487l50.504-47.137 18.898 23.622a5.26 5.26 0 0 0 4.108 1.973h87.203a5.261 5.261 0 0 0 0-10.521h-84.675l-20.865-26.081c-.964-1.24-2.544-1.974-4.106-1.974H82.061a5.264 5.264 0 0 0-5.261 5.26v78.554c0 4.488 5.56 6.917 8.85 3.846l19.205-17.925v30.912c0 40.373 15.722 78.329 44.27 106.876 24.753 24.753 56.583 39.855 90.925 43.434-10.338 5.663-17.364 16.645-17.364 29.24 0 18.37 14.945 33.316 33.315 33.316s33.315-14.946 33.315-33.315c0-12.595-7.028-23.578-17.364-29.24 34.343-3.58 66.172-18.682 90.925-43.435 28.548-28.548 44.27-66.503 44.27-106.876v-30.912l19.205 17.925c3.298 3.08 8.85.648 8.85-3.846v-78.553a5.264 5.264 0 0 0-5.262-5.26M188.668 284.405c-21.85 0-39.627-17.777-39.627-39.627s17.777-39.628 39.627-39.628 39.628 17.777 39.628 39.628-17.777 39.627-39.628 39.627M87.32 170.953v-61.189h65.559zm151.496 101.88c0-6.273 7.87-11.573 17.184-11.573s17.184 5.3 17.184 11.573-7.87 11.572-17.184 11.572-17.184-5.3-17.184-11.572m39.979 106.608c0 12.568-10.227 22.795-22.795 22.795s-22.795-10.227-22.795-22.795c0-10.759 7.494-19.793 17.534-22.176v16.565c0 .118.01.234.018.35h-.368a5.261 5.261 0 0 0 0 10.521h11.221a5.261 5.261 0 0 0 0-10.52h-.368c.008-.117.018-.233.018-.351v-16.565c10.04 2.383 17.535 11.417 17.535 22.176M424.68 170.953l-65.559-61.189h65.559z" data-original="#000000"/></g></svg>