<svg version="1.0" xmlns="http://www.w3.org/2000/svg" width="682.667" height="682.667" viewBox="0 0 512 512"><g fill="#3CB371"><path d="M194.5 1.1c-33.4 4.6-62.6 18.9-85.7 42.2-28.2 28.4-43 64.2-42.9 104.4V162H36.5c-19.7 0-30.2.4-31.9 1.1-2.8 1.3-5.1 5.9-4.2 8.6.3 1 23.7 24.9 51.9 53.1 53.4 53.3 53.3 53.3 57.9 49.8 3.5-2.6 3.6-5.5 1.3-35.6-1.3-16.2-2.2-29.6-2.1-29.6 0-.1 3.9.2 8.6.6 10.6.8 30.1-.4 40-2.4 58.2-12.1 103.3-57.1 115-114.9 2.7-12.9 3.6-33.3 2.1-45.4-1.5-11.9-6.6-32.1-8.9-35.3-5.6-7.6-48.3-14.1-71.7-10.9M230 16.5c5.8.8 13.4 2.2 17 3.2 7.7 2.2 8.1 2.8 11 16.5 6.8 31.9 1.1 66.1-15.6 94.5-18.2 31-48.4 53.1-83.4 61.2-17.5 4.1-30.5 4.4-55.1 1.5-4.9-.6-5.9-.4-7.8 1.5-2.6 2.6-2.7 6.3-.5 32.9.8 10.7 1.4 19.6 1.2 19.8S80.5 232 61 212.5L25.5 177h26c21.6-.1 26.3-.3 28-1.6 1.9-1.4 2-2.7 2.1-25.2 0-22.3.2-24.3 2.7-33.8C87.4 104.5 91.8 93 96.8 84 123.3 35.9 176.2 9.1 230 16.5"/><path d="M193.4 35.6c-12.6 4.5-18.8 19.6-13 31.9 7.7 16.7 31.2 18.1 40.8 2.5 6-9.7 4.7-20.2-3.6-28.6-7.2-7.1-15.1-9-24.2-5.8m13.8 16.2c3.2 3.1 3.3 7.5.3 11-6.7 8-18.8-1.2-12.9-9.6 3-4.4 8.9-5 12.6-1.4m-87.5 24.9c-7.8 8.3-7.8 23.3.1 31.6 7.9 8.4 20.8 9.8 30.3 3.4 6.8-4.6 7.3-12.1.8-14.7-2.5-1.1-3.5-.9-8 1.5-5.6 2.9-8.6 2.8-11.9-.5-2.6-2.6-2.6-7.6 0-11.5 2.5-3.8 2.5-7.5 0-10.3-3-3.2-7.9-2.9-11.3.5m45.9 45.5c-4.3 3.9-6.6 9.7-6.6 16.3.1 9.9 4.9 17.7 13.5 21.6 13.5 6.2 33.8-4.4 26.8-13.9-2.6-3.5-7-4-11.4-1.3-4.3 2.7-7.9 2.6-11.3 0-3.2-2.5-3.5-8.1-.6-11.9 2.9-3.7 2.6-8.4-.6-10.9-3.4-2.7-6.7-2.7-9.8.1m-50 5.3c-5.7 5.3-8 15-5.5 23.8 1.3 4.9 7.3 11.5 12.4 13.8 8 3.7 19.9 1.6 26-4.5 7-7-2.6-16.8-10.5-10.6-8.2 6.4-18.4-3.8-12-12 2.7-3.4 2.6-8.1-.3-10.8-3.1-2.9-6.8-2.8-10.1.3"/><path d="M350.2 14c-32.7 8.8-52.6 41.3-45.7 74.5 1.8 8.7 8.1 21.6 13.4 27.6l4 4.5-99.2 99.2c-54.6 54.6-99.5 99.2-99.8 99.2-.4 0-2.9-1.8-5.5-4-19.7-16.3-49.9-18.5-72.3-5.3-8.1 4.8-17.6 14.3-22.4 22.4-14 23.6-10.7 54.7 8 74.9 11.5 12.4 26.3 19.5 42.9 20.7l8.4.6v6.2c0 25.8 19.9 51.2 46.5 59.1 8.2 2.5 25.8 2.5 34 0 17.1-5.1 31.9-17.4 39.4-32.6 11.9-24.3 8.7-49.2-9.1-71.3l-2.2-2.7 71.3-71.4 71.2-71.3-.3-3.8c-.4-4.9-4.2-8.1-8.5-7.1-1.9.5-25.3 23.2-77.5 75.4-86.5 86.4-79.3 76.9-67.9 88.6 7.9 8.2 11.7 15 13.8 25 2.6 12.2.6 23.9-6 35.2-9.5 16-29.6 25.4-48.3 22.5-10-1.5-21.9-7.7-28.2-14.6-9.9-10.8-14-22.8-12.7-37.5.9-11.9.9-12.2-2.1-14.8-1.9-1.7-3.5-2.2-5.3-1.8-27.2 6-52.4-8.8-59.2-34.7-2.3-8.5-2.4-15.1-.4-23.6 6.2-26 33.1-42.3 58.8-35.6 9 2.3 15.6 6.2 23.3 13.6 5.4 5.3 7.7 6.9 10 6.9 2.5 0 16.9-14 110.1-107.2C355.4 108.1 344.5 121 334 111.2c-7.4-6.8-13.5-18.2-15.2-28.5-2.4-14.4 2.5-29.9 12.7-40.6 26.4-27.7 72.5-15.4 82.1 22 1.3 4.9 1.5 8.7 1 16.9-1 15-1.6 14.5 17.1 14.5h14.8l7.8 3.7c26.8 12.8 36.4 43.5 21.6 69-4.8 8.2-11.3 14.1-20.4 18.4-19.2 9.2-40.8 5.3-56.1-10.1-5.6-5.7-7-6.5-10.2-6.5-3.4 0-4.9 1.2-23.4 19.7-12.9 13-19.9 20.8-20.4 22.6-1 4.2 2.2 8.1 7 8.5 3.6.3 4.3-.2 20.4-16.1l16.7-16.5 4.5 3.9c11 9.5 24.5 14.3 40.5 14.3 18.3 0 31.4-5.4 44.6-18.4 22.9-22.5 25.2-57.6 5.6-83.6-11-14.5-30.3-24.4-47.8-24.4h-6.6l-.6-8.8c-.3-4.8-1.4-11.6-2.6-15.2-6-18.8-22.2-35.1-41.1-41.1-9.6-3.1-26.1-3.5-35.8-.9"/><path d="m400.9 237.9-2.4 1.9-.3 31-.3 31.1h-15.2c-70.3.1-129.4 48.5-143.9 117.9-3.3 15.6-3.3 42.3 0 57.1 3.3 14.7 5.9 22.5 8.1 24.5 4.6 4.2 35.5 10.6 51.2 10.6 73.4 0 134.7-52 146.5-124.5 1.5-9.3 2.1-34.9.9-39.8l-.7-2.8 6.3.6c28 2.7 54.5 4.2 56.5 3.3 2.6-1.2 4.8-5.9 4-8.5-.3-1-23.7-24.9-51.9-53.1-54.7-54.7-53.5-53.6-58.8-49.3m82.4 94.8c-.5.2-11.1-.6-23.8-1.6-31.4-2.5-31.9-2.2-29.5 14.2 1.3 8.9 1.5 26.4.5 35.5-6.6 55.8-49.1 101.9-104.3 113.2-20 4-40.8 3.6-59.5-1.4-9.6-2.5-9.7-2.6-12.7-16.8-7.8-36.6 1-76.4 23.4-106.4 10.9-14.7 29.4-30.2 45.7-38.5 7.8-3.9 17.5-7.5 28.9-10.7 9-2.5 10.7-2.6 33.1-2.7 21.8 0 23.9-.2 25.8-1.9 2-1.8 2.1-2.8 2.1-28v-26.1l35.5 35.5c19.5 19.5 35.2 35.6 34.8 35.7"/><path d="M370.3 347c-2.4 1-5.4 3-6.8 4.4-7 7 2.6 16.8 10.5 10.6 8.2-6.4 18.4 3.8 12 12-2 2.5-2.6 7.5-1.2 9.6 1 1.6 4.8 3.4 7 3.4 2.6 0 7.1-4.6 9.3-9.5 2.1-4.4 2.4-11.1.9-16.6-1.3-4.8-7.5-11.8-12.4-14-5.4-2.4-13.9-2.4-19.3.1m-46.3 2.9c-11.3 2.3-17.7 11.6-11.8 17.1 2.8 2.6 6.2 2.6 9.9-.1 5.4-3.8 11.6-2.4 13.9 3.2 1.3 2.9 1.1 3.6-1.5 8.4-2.5 4.8-2.7 5.6-1.6 8.3.7 1.7 2.5 3.6 4.1 4.2 4.1 1.7 7.7-.4 11.4-6.3 7.1-11.5 1.9-28-10.4-33-4.8-2-9.8-2.6-14-1.8m46 45.2c-5.6 1.1-12.2 5.6-13.5 9.3-1.2 3.6 1 7.7 4.9 9.1 2.2.8 3.5.5 6.6-1.3 5.4-3.1 10.3-2.9 12.9.4s2.7 7 .1 10.9c-3.8 5.8-2 11.5 4.1 13C391 438 398 427.9 398 418c0-14.8-13.2-25.6-28-22.9m-87.1 21.7c-19.7 10.2-15.4 38.8 6.4 43.4 18.4 3.9 33.4-15.5 25.3-32.7-2.8-6-5.6-8.7-11.6-11.4-6.6-3-13.5-2.7-20.1.7m16.5 14.8c3.3 3.3 3.4 7.4.2 11-4.6 5.4-12.7 3-14.2-4.2-.4-2.4 0-3.7 2.1-6.2 3.5-4.2 8.1-4.4 11.9-.6"/></g></svg>