<?xml version="1.0" standalone="no"?>
<!DOCTYPE svg PUBLIC "-//W3C//DTD SVG 20010904//EN"
 "http://www.w3.org/TR/2001/REC-SVG-20010904/DTD/svg10.dtd">
<svg version="1.0" xmlns="http://www.w3.org/2000/svg"
 width="323.000000pt" height="343.000000pt" viewBox="0 0 323.000000 343.000000"
 preserveAspectRatio="xMidYMid meet">

<g transform="translate(0.000000,343.000000) scale(0.100000,-0.100000)"
fill="#3CB371" stroke="none">
<path d="M2433 3415 c-93 -20 -185 -70 -264 -143 -156 -144 -254 -339 -305
-607 -22 -111 -24 -367 -5 -475 31 -172 98 -333 199 -477 31 -45 85 -123 120
-172 89 -128 94 -146 100 -342 5 -202 -4 -275 -65 -524 -39 -162 -46 -205 -46
-290 0 -80 5 -112 23 -159 29 -76 95 -147 169 -183 52 -26 65 -28 176 -28 111
0 124 2 177 28 72 35 140 110 169 185 18 46 22 76 21 162 0 90 -7 131 -45 285
-57 223 -67 299 -67 479 0 232 11 266 147 452 97 133 124 176 170 266 130 259
155 578 73 904 -35 138 -49 164 -90 164 -49 0 -55 -27 -26 -119 45 -142 60
-244 59 -411 0 -294 -60 -461 -262 -735 -92 -124 -150 -232 -158 -293 l-6 -42
-162 0 -162 0 -6 42 c-8 62 -66 169 -161 298 -144 195 -202 314 -242 496 -26
120 -24 368 5 502 75 354 270 601 507 643 152 27 315 -54 452 -223 37 -47 92
-33 92 25 0 22 -19 47 -87 116 -100 100 -189 153 -302 177 -80 17 -117 17
-198 -1z m257 -2285 l0 -110 -155 0 -155 0 0 110 0 110 155 0 155 0 0 -110z
m15 -247 c4 -21 27 -120 51 -220 66 -265 63 -381 -9 -468 -47 -58 -115 -85
-212 -85 -97 0 -165 27 -212 85 -73 88 -75 201 -10 465 25 102 48 202 52 223
l6 37 164 0 164 0 6 -37z"/>
<path d="M2450 3201 c-159 -52 -293 -231 -356 -476 -36 -137 -44 -376 -19
-526 33 -197 103 -356 204 -462 157 -165 360 -163 515 3 99 108 169 267 201
459 26 151 17 389 -19 526 -37 142 -110 286 -183 362 -80 82 -147 115 -243
119 -41 2 -86 0 -100 -5z m176 -112 c61 -29 144 -123 187 -211 58 -118 88
-248 94 -414 6 -161 -6 -267 -44 -389 -134 -424 -433 -485 -606 -124 -76 157
-92 240 -91 464 0 174 2 198 27 289 49 183 147 334 250 385 55 27 127 27 183
0z"/>
<path d="M2392 2878 c-35 -35 14 -102 57 -79 45 25 33 91 -17 91 -16 0 -33 -5
-40 -12z"/>
<path d="M2612 2878 c-7 -7 -12 -25 -12 -40 0 -21 6 -31 26 -38 46 -18 81 19
63 68 -9 25 -56 31 -77 10z"/>
<path d="M2220 2660 c-24 -45 21 -92 66 -71 27 12 33 58 12 79 -20 20 -66 15
-78 -8z"/>
<path d="M2488 2656 c-14 -31 -5 -53 27 -68 21 -9 28 -8 45 7 39 35 20 85 -32
85 -20 0 -32 -7 -40 -24z"/>
<path d="M2225 2436 c-13 -19 -14 -29 -6 -45 25 -45 91 -33 91 17 0 54 -56 72
-85 28z"/>
<path d="M2491 2441 c-16 -29 -14 -46 9 -66 41 -37 102 17 73 64 -16 25 -69
26 -82 2z"/>
<path d="M2243 2250 c-26 -11 -38 -43 -24 -68 14 -26 45 -33 71 -15 43 30 3
102 -47 83z"/>
<path d="M2489 2229 c-14 -27 1 -64 30 -72 44 -11 81 49 49 81 -20 20 -66 14
-79 -9z"/>
<path d="M2391 2026 c-38 -46 25 -111 69 -71 25 23 26 47 2 68 -23 21 -56 22
-71 3z"/>
<path d="M2612 2028 c-7 -7 -12 -24 -12 -38 0 -53 57 -69 86 -25 15 23 15 27
0 50 -18 27 -54 33 -74 13z"/>
<path d="M380 3172 c-21 -17 -23 -28 -28 -163 -8 -260 26 -567 92 -824 19 -71
106 -328 194 -570 l160 -440 -28 -75 c-16 -41 -33 -88 -39 -103 l-11 -28 -44
30 c-177 122 -410 100 -555 -54 -232 -245 -106 -630 231 -710 239 -56 437 67
601 374 l44 83 38 -69 c92 -165 213 -306 303 -352 99 -51 199 -62 310 -36 335
79 459 460 231 709 -140 154 -386 178 -557 55 -24 -17 -44 -30 -46 -28 -1 2
-19 49 -39 104 l-37 100 158 435 c157 430 197 554 226 701 47 231 73 545 61
732 -6 109 -9 119 -31 134 -51 33 -50 35 -339 -735 -148 -397 -272 -722 -275
-722 -3 0 -126 323 -274 718 -247 659 -286 752 -316 752 -4 0 -18 -8 -30 -18z
m453 -1307 c201 -534 372 -987 380 -1008 13 -31 21 -37 45 -37 23 0 38 10 66
45 24 29 60 55 104 77 57 28 77 33 142 33 133 0 242 -70 298 -193 37 -82 35
-182 -7 -267 -61 -124 -169 -188 -321 -189 -79 -1 -90 2 -148 33 -141 77 -271
276 -420 646 -83 207 -385 1040 -416 1150 -14 50 -34 133 -45 185 -34 165 -72
543 -52 510 5 -8 173 -452 374 -985z m706 873 c-14 -227 -60 -477 -123 -671
-42 -126 -260 -725 -268 -733 -3 -3 -15 19 -26 48 -11 29 -31 82 -45 118 l-24
65 236 630 c130 347 240 639 244 649 13 32 14 15 6 -106z m-638 -1825 l43
-106 -43 -84 c-98 -191 -200 -316 -302 -369 -48 -25 -64 -29 -139 -28 -117 1
-186 28 -262 104 -48 49 -60 68 -79 131 -20 64 -21 81 -12 135 20 115 81 200
179 249 50 25 71 29 139 29 101 1 172 -29 242 -103 76 -79 99 -72 143 48 30
83 38 101 44 101 2 0 23 -48 47 -107z"/>
<path d="M962 1238 c-7 -7 -12 -25 -12 -40 0 -49 73 -58 90 -12 13 33 -6 64
-38 64 -15 0 -33 -5 -40 -12z"/>
<path d="M1482 901 c-132 -45 -202 -192 -160 -333 15 -50 78 -122 132 -151 58
-31 174 -31 232 0 56 30 103 79 126 131 24 54 25 155 3 208 -24 58 -91 121
-153 144 -65 25 -111 25 -180 1z m185 -117 c90 -68 85 -197 -10 -268 -45 -33
-132 -29 -180 7 -48 36 -67 75 -67 134 0 130 153 206 257 127z"/>
<path d="M349 906 c-132 -47 -210 -180 -180 -303 35 -141 145 -223 280 -210
103 9 189 74 226 170 22 59 16 155 -13 214 -56 109 -202 169 -313 129z m147
-105 c53 -24 86 -71 92 -131 15 -154 -169 -239 -278 -127 -59 61 -62 151 -6
215 55 62 118 76 192 43z"/>
</g>
</svg>
