<svg xmlns="http://www.w3.org/2000/svg" width="512" height="512" viewBox="55 70 400 380" xml:space="preserve"><path fill="transparent" d="M0 0h511.996v511.996H0z"/><g fill="#3CB371"><path d="M430.222 287.3c-5.02-7.016-13.386-11.731-21.83-12.305-6.894-.474-13.139 1.862-17.583 6.566a391 391 0 0 0-6.256 6.812c-5.08-6.442-13.026-10.729-21.048-11.274-6.892-.473-13.138 1.862-17.582 6.566a307 307 0 0 0-2.454 2.635c-5.052-5.276-12.113-8.718-19.24-9.201-6.894-.473-13.138 1.862-17.582 6.566-6.488 6.868-17.06 18.9-31.412 35.746l-38.874-9.803c-5.169-4.66-27.776-22.933-64.316-22.933-63.453 0-92.604 34.106-93.814 35.557-1.688 2.026-1.589 5.091.236 6.998 2.141 2.24 5.863 2.117 7.847-.263.265-.318 27.154-31.773 85.731-31.773 36.318 0 57.647 20.557 58.007 20.91a5.3 5.3 0 0 0 2.426 1.373l70.616 17.807c8.963 2.875 13.963 12.48 11.154 21.48a17.07 17.07 0 0 1-8.423 10.1 17.07 17.07 0 0 1-13.098 1.185l-.17-.05-57.396-15.806a5.4 5.4 0 0 0-1.397-.19h-44.887a5.26 5.26 0 1 0 0 10.52h44.176l56.628 15.595a27.8 27.8 0 0 0 21.026-1.938c6.554-3.436 11.377-9.219 13.58-16.283a27.7 27.7 0 0 0 1.23-7.005l15.4-1.62a5.26 5.26 0 0 0 3.492-1.866c.38-.455 38.127-45.772 54.047-62.622 6.618-7.006 18.432-2.042 23.212 4.636 7.347 10.266-1.784 21.474-4.758 24.665-14.612 15.679-41.408 47.98-46.224 53.803l-101.99 50.994a17.16 17.16 0 0 1-14.352.467l-97.09-40.88a5.25 5.25 0 0 0-2.042-.412h-72.94a5.26 5.26 0 1 0 0 10.52h71.878l96.113 40.467c7.4 3.116 15.957 2.838 23.14-.753l102.982-51.492a5.25 5.25 0 0 0 1.705-1.357c.308-.373 30.98-37.514 46.517-54.185 11.438-12.27 13.59-26.816 5.615-37.958M307.49 327.68c-.549-.203-1.107-.411-1.675-.556l-19.2-4.84c12.396-14.491 21.917-25.292 27.679-31.392 2.878-3.046 6.602-3.468 9.221-3.295 4.738.322 9.616 2.84 12.88 6.546-8.926 10.058-19.873 22.864-28.905 33.537m30.204 15.356-13.72 1.444a27.86 27.86 0 0 0-7.406-11.241c12.418-14.662 28.072-32.895 37.002-42.348 2.877-3.046 6.603-3.468 9.22-3.296 5.309.362 10.8 3.475 13.99 7.932q.322.455.608.92c-15.346 17.49-34.402 40.25-39.694 46.59M256.206 155.38c-23.783 0-43.132 19.348-43.132 43.132 0 21.739 16.124 34.717 43.132 34.717 27.01 0 43.133-12.979 43.133-34.717 0-23.782-19.35-43.132-43.132-43.132m0 67.33c-12.18 0-32.613-3.145-32.613-24.197 0-17.983 14.63-32.612 32.613-32.612s32.612 14.629 32.612 32.612c0 21.052-20.433 24.196-32.613 24.196m-21.04-109.41c-10.751 0-17.884 13.297-17.884 22.093 0 9.86 8.022 17.884 17.884 17.884s17.884-8.023 17.884-17.884c0-8.796-7.133-22.093-17.884-22.093m0 29.457c-4.06 0-7.364-3.304-7.364-7.364 0-4.976 4.198-11.573 7.364-11.573s7.364 6.597 7.364 11.573c0 4.06-3.303 7.364-7.364 7.364m42.08-29.457c-10.75 0-17.884 13.297-17.884 22.093 0 9.86 8.023 17.884 17.884 17.884s17.885-8.023 17.885-17.884c0-8.796-7.133-22.093-17.885-22.093m0 29.457c-4.06 0-7.364-3.304-7.364-7.364 0-4.976 4.198-11.573 7.364-11.573s7.364 6.597 7.364 11.573c.001 4.06-3.302 7.364-7.364 7.364m33.666-4.209c-10.751 0-17.885 13.298-17.885 22.093 0 9.861 8.023 17.884 17.885 17.884s17.884-8.022 17.884-17.884c0-8.795-7.134-22.093-17.885-22.093m0 29.457c-4.06 0-7.364-3.303-7.364-7.364 0-4.975 4.2-11.572 7.364-11.572 3.167 0 7.364 6.597 7.364 11.572 0 4.06-3.303 7.364-7.364 7.364m-109.41-29.457c-10.75 0-17.884 13.298-17.884 22.093 0 9.861 8.023 17.884 17.885 17.884s17.884-8.022 17.884-17.884c0-8.795-7.133-22.093-17.885-22.093m0 29.457c-4.06 0-7.364-3.303-7.364-7.364 0-4.975 4.198-11.572 7.364-11.572s7.364 6.597 7.364 11.572c0 4.06-3.303 7.364-7.364 7.364" data-original="#000000"/><path d="M267.427 189.046h-5.96v-5.962a5.26 5.26 0 0 0-5.26-5.26 5.26 5.26 0 0 0-5.26 5.26v5.962h-5.962a5.26 5.26 0 1 0 0 10.52h5.962v5.96a5.26 5.26 0 0 0 5.26 5.26 5.26 5.26 0 0 0 5.26-5.26v-5.96h5.96a5.26 5.26 0 1 0 0-10.52" data-original="#000000"/><path d="M351.243 93.973c-10.86-11.01-41.623-32.647-95.037.475-53.41-33.121-84.175-11.484-95.036-.475-22.211 22.517-26.143 62.044-8.764 88.112 41.995 62.993 98.587 99.424 100.976 100.943a5.3 5.3 0 0 0 5.648 0c2.389-1.52 58.98-37.95 100.976-100.943 17.379-26.068 13.448-65.594-8.763-88.112m.009 82.276c-35.502 53.254-83.072 87.8-95.048 96.012-11.974-8.203-59.497-42.69-95.046-96.012-14.757-22.138-11.393-55.733 7.5-74.887 9.18-9.307 20.856-13.94 34.213-13.94 15.08 0 32.3 5.908 50.477 17.67a5.26 5.26 0 0 0 5.715 0c34.28-22.182 65.15-23.542 84.69-3.73 18.894 19.154 22.258 52.749 7.499 74.887" data-original="#000000"/></g></svg>