<svg version="1.0" xmlns="http://www.w3.org/2000/svg" width="512.000000pt" height="512.000000pt" viewBox="0 0 512.000000 512.000000" preserveAspectRatio="xMidYMid meet">
  <g transform="translate(0.000000,512.000000) scale(0.100000,-0.100000)" fill="#3CB371" stroke="none">
    <path d="M2523 5108 c-12 -7 -580 -481 -1262 -1053 -787 -660 -1244 -1050
-1252 -1068 -9 -21 -9 -34 -1 -53 13 -27 211 -294 250 -336 48 -52 73 -42 231
87 77 63 142 115 145 115 3 0 7 -621 8 -1381 l3 -1381 24 -19 c23 -19 67 -19
1891 -19 1824 0 1868 0 1891 19 l24 19 3 925 c2 924 2 924 -19 950 -27 35 -76
37 -107 4 l-22 -23 0 -872 0 -872 -404 0 -404 0 -5 468 c-3 382 -7 480 -20
536 -84 358 -339 626 -693 728 -68 20 -102 23 -244 23 -142 0 -176 -3 -244
-23 -353 -102 -609 -371 -693 -728 -13 -56 -17 -154 -20 -536 l-5 -468 -404 0
-404 0 0 1393 1 1392 879 720 c483 396 884 720 890 720 6 0 407 -324 890 -720
l879 -720 1 -367 c0 -354 1 -369 20 -388 33 -33 75 -30 108 6 22 25 22 28 22
320 0 162 3 294 6 294 3 0 68 -52 145 -115 158 -129 183 -139 231 -87 39 42
237 309 250 336 8 19 8 32 -1 53 -7 17 -136 131 -322 287 l-309 258 0 600 c0
633 -1 645 -45 662 -9 3 -205 6 -434 6 -408 0 -419 -1 -445 -21 l-26 -20 0
-211 c0 -130 -4 -208 -10 -206 -9 3 -315 258 -728 606 -112 94 -205 165 -220
168 -15 2 -37 -1 -49 -8z m1203 -1139 c637 -534 1171 -983 1186 -998 l27 -26
-72 -97 c-40 -53 -75 -96 -78 -95 -4 1 -492 400 -1084 887 -592 487 -1092 893
-1111 903 -33 18 -35 18 -68 0 -19 -10 -519 -416 -1111 -903 -592 -487 -1080
-886 -1084 -887 -3 -1 -38 42 -78 95 l-72 97 27 26 c43 43 2345 1969 2352
1969 4 0 528 -437 1166 -971z m604 185 l0 -496 -58 49 c-32 26 -178 149 -325
272 l-267 224 0 223 0 224 325 0 325 0 0 -496z m-1605 -2409 c275 -57 516
-273 600 -538 38 -119 45 -219 45 -654 l0 -403 -810 0 -810 0 0 403 c0 435 7
535 45 654 83 262 323 479 593 537 90 19 246 20 337 1z"/>
    <path d="M2200 3825 c-116 -36 -214 -218 -189 -350 12 -63 32 -97 85 -144 52
-45 95 -61 169 -61 100 0 211 82 236 174 17 64 6 164 -25 227 -64 127 -171
187 -276 154z m94 -156 c38 -30 66 -91 66 -144 0 -64 -39 -105 -100 -105 -61
0 -100 41 -100 105 0 53 28 114 66 144 15 12 30 21 34 21 4 0 19 -9 34 -21z"/>
    <path d="M2820 3831 c-76 -23 -134 -76 -176 -160 -31 -63 -42 -163 -25 -227
25 -92 136 -174 236 -174 74 0 117 16 169 61 53 47 73 81 85 144 25 135 -74
315 -193 350 -55 16 -60 17 -96 6z m74 -162 c38 -30 66 -91 66 -144 0 -64 -39
-105 -100 -105 -61 0 -100 41 -100 105 0 53 28 114 66 144 15 12 30 21 34 21
4 0 19 -9 34 -21z"/>
    <path d="M1725 3465 c-40 -10 -61 -25 -102 -69 -121 -130 -129 -311 -18 -419
53 -52 110 -71 193 -65 188 14 286 203 201 388 -62 134 -162 194 -274 165z
m119 -193 c21 -30 31 -57 34 -96 4 -51 2 -57 -26 -86 -75 -74 -197 -4 -173
101 19 82 74 145 114 130 12 -4 35 -27 51 -49z"/>
    <path d="M3305 3470 c-78 -18 -140 -75 -184 -170 -85 -185 13 -374 201 -388
115 -8 205 45 251 147 81 183 -94 452 -268 411z m86 -177 c88 -100 58 -233
-54 -233 -30 0 -46 7 -69 30 -28 28 -30 35 -26 85 7 87 73 168 118 145 8 -5
22 -16 31 -27z"/>
    <path d="M2478 3149 c-234 -30 -437 -203 -508 -434 -30 -97 -30 -244 -1 -337
36 -112 127 -211 245 -267 182 -85 510 -85 692 0 178 84 266 228 266 434 -1
313 -227 565 -543 605 -46 5 -84 9 -84 9 0 -1 -30 -5 -67 -10z m217 -166 c192
-59 325 -235 326 -435 1 -105 -21 -169 -80 -228 -86 -85 -199 -121 -381 -121
-182 0 -295 36 -381 121 -59 59 -81 123 -80 228 2 306 302 525 596 435z"/>
  </g>
</svg>
