<svg version="1.0" xmlns="http://www.w3.org/2000/svg" width="682.667" height="682.667" viewBox="0 0 512 512"><g fill="#3CB371"><path d="M28.3 1c-1.2.5-2.7 1.8-3.3 2.9-.7 1.5-1 37.2-.7 124.8.3 121 .3 122.9 2.4 131.3 17.6 70.9 68.9 146.1 134.4 197.2 12.3 9.6 37.6 26.5 50.7 33.7 17.5 9.9 40.5 20.5 44.2 20.5s26.7-10.6 44.2-20.5c13.1-7.2 38.4-24.1 50.7-33.7 65.5-51.1 116.8-126.3 134.4-197.2 2.1-8.4 2.1-10.2 2.4-131 .2-96.6 0-123-.9-124.9-2.6-4.9-5.7-4.8-19.6.7-34.3 13.5-61.4 18.6-98.7 18.6-35.9.1-63.9-5-96-17.4C254.4-.9 256.9-.8 244 4.3c-66.2 26.1-135.4 26.2-200.1.1C32.1-.3 31.7-.4 28.3 1M264 19c45 18.5 100.9 24.4 151.3 15.9 17.2-2.9 42.1-9.7 56-15.4 1.6-.7 1.7 5 1.7 110.8 0 121.1.1 118.7-5.6 137.7-19.2 63.8-63.9 127.5-122.1 174.5-21.4 17.1-54.7 37.9-79.1 49.1l-10.2 4.7-10.2-4.7c-24.4-11.2-57.7-32-79.1-49.1-58.2-47-102.9-110.7-122.1-174.5-5.7-19-5.6-16.6-5.6-137.7 0-105.8.1-111.5 1.8-110.8.9.4 6.2 2.3 11.7 4.2 51.2 17.6 107 19.9 159.6 6.7 14.1-3.5 29.4-8.5 37.9-12.3 5.9-2.6 5.6-2.6 14 .9"/><path d="M240.9 39.6c-53.3 18.4-110 21.3-165.7 8.3-11.5-2.7-14.6-2.5-17.2.8l-2.1 2.7.3 98.5.4 98.6 2.7 9.5c4.9 17 10.9 32.2 19.8 50 17.7 35.3 35.6 60.4 63.7 89.2 30.8 31.5 62.7 55.2 99.8 73.8 6.6 3.3 12.5 6 13.2 6 2.1 0 24.8-11.6 38.2-19.6 40.6-24.2 82.5-62.8 110.7-102.1 20.5-28.3 39-66.1 48-97.3l2.7-9.5.4-61.9c.2-44.7 0-62.7-.8-64.7-2.2-5.3-10.3-6-12.9-1-.8 1.3-1.1 21.1-1.1 60.4 0 64.3 0 64.7-6.3 83.7-7.8 24-19.6 47.6-36.1 72.4-32.6 49-78 89.6-131.8 118.1l-10.8 5.7-10.7-5.7c-35.2-18.6-65.5-41.4-93.2-70.1C118 350.1 90.8 306.5 77.3 265c-6.5-19.6-6.3-16.5-6.3-113.6 0-71.8.2-88.4 1.3-88.4.7 0 5.3.9 10.2 1.9 32.9 7.1 76.9 7.9 111.5 2 15.9-2.7 34.1-7.2 49.3-12.1l12.7-4.2 12.8 4.2c15.1 4.9 33.3 9.4 49.2 12.1 34.6 5.9 78.6 5.1 111.5-2 4.9-1 9.5-1.9 10.2-1.9 1 0 1.3 3.2 1.3 13.8 0 12.5.2 14 2 16 3 3.2 8.2 3 10.9-.4 2-2.5 2.1-4 2.1-21.9s-.1-19.4-2.1-21.9c-2.5-3.2-5.6-3.3-17.1-.7-55.9 13-111.3 10.2-166.3-8.4-7.2-2.5-14-4.5-15.1-4.4-1 0-7.6 2-14.5 4.5"/><path d="m171.4 106.4-2.9 2.4-.3 17.5-.3 17.6-17.4.3c-24.1.4-22-2.6-22 31.7 0 25 .1 27 1.9 29s2.9 2.1 19.7 2.1h17.8l.3 18c.4 24.4-1.9 22.4 27.6 22.8 12.5.2 24.6.1 26.8-.3 7.9-1.1 7.8-1.1 8.4-21.7l.5-18.3 18.3-.5c16.6-.5 18.5-.7 19.8-2.4 2.3-3.2 2.6-7 2.2-31.8-.4-30.7 1.6-28.2-22.8-28.6l-18-.3v-17.8c0-16.8-.1-17.9-2.1-19.7-1.9-1.7-4.2-1.9-28.4-2.2l-26.3-.3zm44.6 28.5c0 16.4.9 21.4 4 23.1 1 .6 9.5 1 18.9 1H256v32.9l-17.5.3c-23.3.4-21.9-1-22.3 22.3l-.3 17.5H183v-17.4c0-23.6 1.6-22-21.9-22.4l-18.1-.4.2-16.1.3-16.2 18.3-.5c16.7-.5 18.5-.7 19.8-2.4 1.1-1.5 1.4-6 1.4-19.8V119h33zm153 9.8c-6.2 2.2-6.7 8.4-1.3 14.4l3.7 4-8.7 8.7-8.7 8.7-5.7-5.7c-6.4-6.1-9-7.8-12.4-7.8-1.7 0-17.5 15.1-59.7 57.2-31.5 31.5-58 58.5-58.8 60-1 2-1.4 6.7-1.4 18.5v15.8l-10.1 10c-5.6 5.5-10.7 11.3-11.4 13-1.6 3.6-.6 6.8 3.8 11.3l3.1 3.2-12.2 12.3C178.3 379.4 177 381 177 384.2c0 4.3 2.8 7.1 7.1 7.1 2.6 0 5-1.9 15.4-12.3l12.4-12.3 3.9 3.5c7.7 6.9 9.3 6.3 23.7-8.1l10-10.1h34l58.7-58.8c53.4-53.3 58.8-59 58.8-61.9 0-2.6-1.3-4.6-6.7-10.3l-6.7-7.1 8.7-8.7 8.7-8.6 3.2 3.1c4.7 4.4 7.2 5.5 10.2 4.3 3.4-1.3 5.8-5.2 5.1-8.2-.7-2.9-48.1-50.4-51-51.1-1.1-.3-2.7-.3-3.5 0m16.8 50-8.8 8.8-6-6-6-5.9 8.7-8.8 8.8-8.8 6 6 6 6zm-25.6 14 22.8 22.8-52.7 52.7-52.8 52.8h-28l-9.2-9.2-9.3-9.3v-27.1l5-4.9 5-4.9 9.8 9.7c10.4 10.1 12.6 11.2 16.9 8.2 2.6-1.9 3.7-5.9 2.2-8.8-.6-1.2-5-6.1-9.7-11l-8.7-8.7 11.7-11.7 11.7-11.7 9.9 9.7c10.4 10.1 12.6 11.2 16.9 8.2 2.6-1.9 3.7-5.9 2.2-8.8-.6-1.2-5-6.1-9.7-11l-8.7-8.7 11.7-11.7 11.7-11.7 9.9 9.7c10.4 10.1 12.6 11.2 16.9 8.2 2.6-1.9 3.7-5.9 2.2-8.8-.6-1.2-5-6.1-9.7-10.9l-8.7-8.8 8.5-8.5c4.7-4.7 8.7-8.5 9-8.5s10.7 10.2 23.2 22.7M229.7 338.2c2.9 2.9 5.3 5.7 5.3 6.2 0 1.4-10.2 11.6-11.5 11.6-.6 0-3.5-2.5-6.5-5.5l-5.4-5.5 5.9-6c3.3-3.3 6.2-6 6.4-6 .3 0 2.9 2.3 5.8 5.2"/></g></svg>