<svg version="1.0" xmlns="http://www.w3.org/2000/svg" width="682.667" height="682.667" viewBox="0 0 512 512"><path d="M156.5.6c-1.1.2-4.5.9-7.5 1.5-12.5 2.6-26.7 10.7-36.6 21.1-9.6 10-16.2 21.8-19.5 34.8-1.8 7.1-1.8 26.9 0 34 6.9 27.3 27.8 48.3 56.1 56.2 2.6.7 10.3 1.2 18.3 1.2H181l-.2 18.9-.3 18.9-9.1 3.3c-36.2 12.9-66.4 37.3-87.1 70.5C68.5 286.4 60 317.5 60 350.2V362h-8.9c-11.3 0-18 1.3-25.9 5C8.3 374.9-2.3 395.1.8 413.6c3.1 19 17.5 33.9 36.1 37.4 3.4.6 44.2 1 113.8 1 106.6 0 108.4 0 112.3 2 4.5 2.3 8 8 8 13s-3.5 10.7-8 13c-3.7 1.9-5.8 2-37 2s-33.3.1-37 2c-4.5 2.3-8 8-8 13s3.5 10.7 8 13c3.7 1.9 5.8 2 36.8 2 18.2 0 35.3-.5 38.3-1 18.6-3.5 33-18.4 36.1-37.4 3.8-23.1-12.6-46.1-36.1-50.6-3.4-.6-44.2-1-113.8-1-106.6 0-108.4 0-112.3-2-4.5-2.3-8-8-8-13s3.5-10.7 8-13c3.9-2 5.4-2 233-2s229.1 0 233-2c6.5-3.3 8-7.5 8-22.7 0-16.3-2-29.7-6.5-43.1-8.6-25.7-25.6-47.8-48.6-63.2-4.8-3.2-9.3-6-10-6.2-1-.3-.8-2.1 1.1-8.4 2.1-6.6 2.4-10 2.4-20.4 0-13.1-.8-17.3-5.1-28-8.9-22-28.1-38.5-52.3-45.2-6.8-1.8-27.2-1.5-35 .6-22.8 6.2-41.8 22.2-50.5 42.6-1 2.5-2 4.6-2.1 4.8 0 .1-3.5-1.4-7.6-3.3-4.1-2-11.7-5.1-16.9-6.9l-9.4-3.4-.3-18.9-.2-18.9h13.7c8 0 15.7-.5 18.3-1.2 28.3-7.9 49.2-28.9 56.1-56.2 1.8-7.1 1.8-26.9 0-34-6.9-27.4-28.8-49.2-56.1-56.1-8.2-2-27-1.8-35.4.5-13.9 3.7-23.3 9.2-34.4 19.9l-7.2 7-7.3-7C203.6 7.6 188.8 1.2 168.5.5c-5.5-.2-10.9-.2-12 .1M174.1 31c19.3 3.7 33.6 19.1 36.1 38.8 1.4 10.6 3.8 15.6 8.7 18.2 5.1 2.5 9.1 2.5 14.2 0 4.9-2.6 7.3-7.6 8.7-18.2 2.5-20.3 17.3-35.6 37.6-39 28.9-4.8 55.6 21.9 50.8 50.8-3.3 19.8-18.2 34.6-38.2 37.7-8.7 1.3-16.6 0-25.7-4.3-11-5.1-19-3.4-23.4 5-1.7 3.1-1.9 6.2-1.9 32.5v29h-30v-29c0-26.3-.2-29.4-1.9-32.5-4.4-8.4-12.4-10.1-23.4-5-13.3 6.3-26 6.3-39.2.1-17.2-8-27.8-28.1-24.7-46.7 4.2-25.2 27.7-42 52.3-37.4m210 151c18.8 3.6 33.2 18.7 36.2 38 2.6 16.8-5.3 33.8-20.4 44q-13.05 9-6.9 21c2.2 4.4 8 8 12.8 8 3.8 0 12.1-4.2 17.5-9 2.5-2.2 5.1-4 5.8-4 2.8 0 15.6 8.6 22.6 15.4 13.1 12.3 20.2 23.2 25.3 38.4 2.5 7.7 5 20.6 5 26.3 0 1.9-3.1 1.9-196 1.9H90v-11.3c.1-39.4 13.7-73.3 40-99.7 41.4-41.3 105.1-51.7 156.5-25.5 13.1 6.7 15.1 8.5 16 14.1 1 6.7 5 17.5 9.2 24.6 7.8 13.3 26.1 28.8 34.1 28.8 5.4 0 11.1-3.5 13.3-8.3 3.8-8.4 1.7-14.8-7-20.7-15.1-10.2-23-27.2-20.4-44 4-25.6 27.5-42.7 52.4-38" fill="#3CB371"/><path d="M158.8 62.1c-4.3 2.2-7.8 8.1-7.8 12.9 0 5 3.5 10.7 8 13 2.1 1.1 5.3 2 7 2 7.6 0 15-7.4 15-15 0-5-3.5-10.7-8-13-4.9-2.5-9.4-2.5-14.2.1m120 0c-4.3 2.2-7.8 8.1-7.8 12.9 0 1.7.9 4.9 2 7 2.3 4.5 8 8 13 8 1.7 0 4.9-.9 7-2 4.5-2.3 8-8 8-13s-3.5-10.7-8-13c-4.9-2.5-9.4-2.5-14.2.1m150 241c-4.3 2.2-7.8 8.1-7.8 12.9 0 5 3.5 10.7 8 13 2.1 1.1 5.3 2 7 2 7.6 0 15-7.4 15-15 0-5-3.5-10.7-8-13-4.9-2.5-9.4-2.5-14.2.1" fill="#3CB371"/></svg>